<svg xmlns="http://www.w3.org/2000/svg" width="112.055" height="91.568" viewBox="0 0 112.055 91.568">
  <g id="Network__Two_Color" data-name="Network _Two Color" transform="translate(-65.17 -48.49)">
    <ellipse id="Ellipse_125" data-name="Ellipse 125" cx="44.489" cy="4.71" rx="44.489" ry="4.71" transform="translate(79.254 130.638)" fill="#e6e6e6" opacity="0.45"/>
    <path id="Path_46682" data-name="Path 46682" d="M95.039,88.65a4.314,4.314,0,0,0-4.31-4.314,4.123,4.123,0,0,0-.694.064,5.808,5.808,0,0,0-5.106-3.059h-.213a6.768,6.768,0,0,0,.213-1.672,6.9,6.9,0,0,0-13.79,0,6.769,6.769,0,0,0,.213,1.672H71.14a5.812,5.812,0,1,0,0,11.62H91.3v-.043A4.31,4.31,0,0,0,95.039,88.65Z" transform="translate(0 -14.048)" fill="#e6e6e6" opacity="0.37"/>
    <circle id="Ellipse_126" data-name="Ellipse 126" cx="37.71" cy="37.71" r="37.71" transform="translate(84.475 48.49)" fill="#efefef"/>
    <path id="Path_46683" data-name="Path 46683" d="M132.89,62.092s.332,5.438,4.068,3.829,8.761-3.4,8.22,2.583,2.446,6.808,6.663,5.3,2.174-1.9,2.446-7.344-6.8-5.731-5.71-9.522,9.582.732,6.625-7.45C155.2,49.473,140.323,50.7,132.89,62.092Z" transform="translate(-38.701 -0.574)" fill="#cecece" opacity="0.37"/>
    <path id="Path_46684" data-name="Path 46684" d="M200.115,92.609a5.433,5.433,0,0,0-2.289.5c-1.489.711-3.285,2.425-2.268,6.518,1.634,6.548,4.353,1.7,7.888,2.485s11.556,1.617,7.616,8.824.54,8.7,4.348,6.935,1.225-8.837,5.17-5.71-.587,12.981,9.033,9.2a36.369,36.369,0,0,0,0-36.5s-5.012-9.595-8.956-6.195,1.485,3.591,2.025,7.5-1.753,8.663-4.9,4.28-2.085-4-7.114-4.536c-4.021-.425-6.808.047-6.888,3.459a3.293,3.293,0,0,1-3.246,3.225Z" transform="translate(-74.256 -16.918)" fill="#cecece" opacity="0.37"/>
    <path id="Path_46685" data-name="Path 46685" d="M199.118,60.325s-3.91-1.089-3.859,3.672,2.638,4.485,5.493,3.259.425,2.723,5.846,1.634,5.846-2.361,4.625-4.255S207.96,55.564,199.118,60.325Z" transform="translate(-74.371 -5.879)" fill="#cecece" opacity="0.37"/>
    <path id="Path_46686" data-name="Path 46686" d="M109.716,131.446s4.6-7.522,9.624-2.438-4.859,4.255.217,9.165,8.612-6.476,11.488-2.149,8.459,7.263,1.893,11.062-2.634,9.1.387,7.973,8.4,6.535,0,11.275C133.3,166.344,108.665,157.349,109.716,131.446Z" transform="translate(-25.43 -44.913)" fill="#cecece" opacity="0.37"/>
    <path id="Path_46687" data-name="Path 46687" d="M195.432,154.894s-5.17,0-5.182,4.893,9.65.268,7.4,5.574,3.038,6.735,5.957,4.523-2.127-8.858-1.638-13.556S196.007,152.716,195.432,154.894Z" transform="translate(-71.515 -59.748)" fill="#cecece" opacity="0.37"/>
    <path id="Path_46688" data-name="Path 46688" d="M197.361,211.062s-3.332-3.514,3.936-4.331,7.429-4.621,9.786-6.255,7.378,4.127,7.378,4.127S209.168,212.947,197.361,211.062Z" transform="translate(-75.115 -86.735)" fill="#cecece" opacity="0.37"/>
    <path id="Path_46689" data-name="Path 46689" d="M290.717,163.217a3.9,3.9,0,0,0-3.9-3.9,3.8,3.8,0,0,0-.625.055,5.255,5.255,0,0,0-4.633-2.77h-.2a6.13,6.13,0,0,0,.2-1.515,6.246,6.246,0,0,0-12.488,0,6.13,6.13,0,0,0,.191,1.515h-.191a5.259,5.259,0,0,0,0,10.518h18.257v-.034a3.906,3.906,0,0,0,3.391-3.868Z" transform="translate(-113.492 -57.445)" fill="#f7f7f7"/>
    <path id="Path_46690" data-name="Path 46690" d="M130.6,99.243l28.082,1.8,28.592-9.424L148.147,77.51Z" transform="translate(-37.27 -16.673)" fill="none" stroke="#24285b" stroke-linecap="round" stroke-linejoin="round" stroke-width="2" stroke-dasharray="2 10"/>
    <path id="Path_46691" data-name="Path 46691" d="M130.6,118.295l6.4,23.257,35.459,8.467,14.815-39.348" transform="translate(-37.27 -35.46)" fill="none" stroke="#24285b" stroke-linecap="round" stroke-linejoin="round" stroke-width="2" stroke-dasharray="2 10"/>
    <path id="Path_46692" data-name="Path 46692" d="M145.64,154.277l21.065-21.457L181.1,162.744" transform="translate(-45.947 -48.147)" fill="none" stroke="#24285b" stroke-linecap="round" stroke-linejoin="round" stroke-width="2" stroke-dasharray="2 10"/>
    <circle id="Ellipse_127" data-name="Ellipse 127" cx="4.251" cy="4.251" r="4.251" transform="translate(145.924 70.834)" fill="#e03"/>
    <circle id="Ellipse_128" data-name="Ellipse 128" cx="4.251" cy="4.251" r="4.251" transform="translate(95.342 101.908)" fill="#e03"/>
    <line id="Line_13" data-name="Line 13" x1="9.918" y1="23.533" transform="translate(110.838 60.837)" fill="none" stroke="#24285b" stroke-linecap="round" stroke-linejoin="round" stroke-width="2" stroke-dasharray="2 10"/>
    <circle id="Ellipse_129" data-name="Ellipse 129" cx="3.48" cy="3.48" r="3.48" transform="translate(131.787 111.196)" fill="#e03"/>
    <circle id="Ellipse_130" data-name="Ellipse 130" cx="3.48" cy="3.48" r="3.48" transform="translate(89.676 79.278)" fill="#e03"/>
    <circle id="Ellipse_131" data-name="Ellipse 131" cx="4.902" cy="4.902" r="4.902" transform="translate(115.885 79.666)" fill="#e03"/>
    <circle id="Ellipse_132" data-name="Ellipse 132" cx="4.251" cy="4.251" r="4.251" transform="translate(106.558 56.587)" fill="#e03"/>
    <path id="Path_46693" data-name="Path 46693" d="M109.6,228.03s-4.68-1.276-5.68-5.616c0,0,7.233-1.464,7.437,6Z" transform="translate(-22.263 -99.341)" fill="#e03" opacity="0.58"/>
    <path id="Path_46694" data-name="Path 46694" d="M116.495,221.217s-3.263-5.157-.391-9.977a8.3,8.3,0,0,1,3.055,9.986Z" transform="translate(-28.458 -92.988)" fill="#e03" opacity="0.73"/>
    <path id="Path_46695" data-name="Path 46695" d="M120.59,225.952s1.7-5.442,6.931-6.472c0,0,.974,3.531-3.374,6.489Z" transform="translate(-31.697 -97.722)" fill="#e03"/>
    <path id="Path_46696" data-name="Path 46696" d="M112.64,234.41l.945,6.472,5.957.026.881-6.467Z" transform="translate(-27.149 -106.3)" fill="#24285b"/>
  </g>
</svg>
